<svg width="28" height="28" viewBox="0 0 28 28" fill="none" xmlns="http://www.w3.org/2000/svg">
<path d="M0.678125 0.678125L0 1.35625V11.4188C0 21.1969 0.021875 21.5031 0.4375 22.1156C1.07187 22.9906 2.03437 23.1875 5.8625 23.1875C8.35625 23.1875 9.23125 23.2531 9.275 23.45C9.31875 23.6031 9.45 24.4125 9.58125 25.2656C9.77812 26.5344 9.93125 26.9062 10.5 27.3875L11.1562 28H18.9H26.6437L27.3219 27.3219L28 26.6438V16.5813C28 6.80313 27.9781 6.49688 27.5625 5.88437C27.3 5.53438 26.775 5.1625 26.2937 5.03125C25.8344 4.92188 22.9688 4.8125 19.6437 4.8125H13.825L13.6719 3.65313C13.4312 1.64062 13.3219 1.33438 12.6438 0.65625L11.9875 0H6.67188H1.35625L0.678125 0.678125ZM11.3531 2.05625C11.5062 2.23125 12.0969 6.27813 12.6875 11.0688C13.3 15.8813 13.825 20.125 13.8906 20.5188L14.0219 21.2188H8.02812C2.75625 21.2188 1.99063 21.175 1.88125 20.8688C1.81562 20.6719 1.75 16.4281 1.75 11.3969C1.75 4.59375 1.81562 2.20938 2.0125 2.0125C2.42812 1.59688 11.025 1.64062 11.3531 2.05625ZM26.1187 7.13125C26.1844 7.32812 26.25 11.5938 26.25 16.625C26.25 24.0844 26.2062 25.8125 25.9438 26.0094C25.7469 26.1844 23.8 26.25 19.2937 26.2063L12.9281 26.1406L14.4594 24.325C15.2906 23.3187 15.9688 22.4 15.9688 22.2906C15.9688 21.9625 14.2406 8.11563 14.1094 7.37188L14.0219 6.78125H19.9937C25.2656 6.78125 26.0094 6.825 26.1187 7.13125ZM12.2281 24.0187C11.55 24.7625 11.4625 24.8063 11.3313 24.3906C11.0031 23.3625 11.1125 23.1875 12.0531 23.1875H12.95L12.2281 24.0187Z" fill="#575757"/>
<path d="M5.95 5.95C5.6875 6.3 4.15625 13.825 4.15625 14.8094C4.15625 15.3781 4.26562 15.5531 4.70312 15.6625C5.5125 15.8594 5.81875 15.4656 6.125 13.8906L6.3875 12.4688H7.4375H8.4875L8.75 13.8906C9.05625 15.4656 9.3625 15.8594 10.1719 15.6625C10.6094 15.5531 10.7188 15.3781 10.7188 14.8094C10.7188 13.825 9.1875 6.3 8.925 5.95C8.79375 5.79688 8.18125 5.6875 7.4375 5.6875C6.69375 5.6875 6.08125 5.79688 5.95 5.95ZM7.74375 8.79375C7.83125 9.31875 7.94062 9.95312 8.02813 10.2156C8.1375 10.6531 8.05 10.7188 7.4375 10.7188C6.825 10.7188 6.7375 10.6531 6.84687 10.2156C6.93438 9.95312 7.04375 9.31875 7.13125 8.79375C7.21875 8.29063 7.35 7.875 7.4375 7.875C7.525 7.875 7.65625 8.29063 7.74375 8.79375Z" fill="#575757"/>
<path d="M19.8411 10.85C19.7536 10.9375 19.688 11.2875 19.688 11.6375C19.688 12.25 19.688 12.25 18.3099 12.25C17.5224 12.25 16.8224 12.3594 16.6693 12.5125C16.2099 12.9719 16.363 13.7813 16.9318 14C17.238 14.1094 17.5661 14.4813 17.6974 14.9188C17.8286 15.3125 18.2224 16.0781 18.5724 16.6031L19.2286 17.5656L18.2443 18.3531C17.4349 19.0094 17.2818 19.25 17.3255 19.7969C17.4349 20.825 18.3318 20.8031 19.5786 19.775L20.563 18.9875L21.5474 19.775C22.7943 20.8031 23.6911 20.825 23.8005 19.7969C23.8443 19.25 23.6911 19.0094 22.8818 18.3531L21.8974 17.5656L22.5536 16.6031C22.9036 16.0781 23.2974 15.3125 23.4286 14.9188C23.5599 14.4813 23.888 14.1094 24.1943 14C24.763 13.7813 24.9161 12.9719 24.4568 12.5125C24.3036 12.3594 23.6036 12.25 22.838 12.25H21.4599L21.3943 11.5281C21.3286 10.9156 21.2411 10.8281 20.6724 10.7625C20.3005 10.7188 19.9286 10.7625 19.8411 10.85ZM21.6568 14.1094C21.6568 14.4375 20.738 15.9688 20.563 15.9688C20.388 15.9688 19.4693 14.4375 19.4693 14.1094C19.4693 14.0438 19.9724 14 20.563 14C21.1755 14 21.6568 14.0438 21.6568 14.1094Z" fill="#575757"/>
</svg>
