<svg width="28" height="28" viewBox="0 0 28 28" fill="none" xmlns="http://www.w3.org/2000/svg">
<path d="M0 1.35625V11.4188C0 21.1969 0.021875 21.5031 0.4375 22.1156C1.07187 22.9906 2.03437 23.1875 5.8625 23.1875C8.35625 23.1875 9.23125 23.2531 9.275 23.45C9.31875 23.6031 9.45 24.4125 9.58125 25.2656C9.77812 26.5344 9.93125 26.9063 10.5 27.3875L11.1562 28H26.6437L28 26.6437V16.5812C28 6.80312 27.9781 6.49688 27.5625 5.88437C27.3 5.53438 26.775 5.1625 26.2937 5.03125C25.8344 4.92188 22.9688 4.8125 19.6437 4.8125H13.825L13.6719 3.65313C13.4312 1.64062 13.3219 1.33438 12.6438 0.65625L11.9875 0H1.35625L0 1.35625ZM11.3531 2.05625C11.5062 2.23125 12.0969 6.27813 12.6875 11.0688C13.3 15.8813 13.825 20.125 13.8906 20.5187L14.0219 21.2188H8.02812C2.75625 21.2188 1.99063 21.175 1.88125 20.8687C1.81562 20.6719 1.75 16.4281 1.75 11.3969C1.75 4.59375 1.81562 2.20938 2.0125 2.0125C2.42812 1.59688 11.025 1.64062 11.3531 2.05625ZM26.1187 7.13125C26.1844 7.32812 26.25 11.5938 26.25 16.625C26.25 24.0844 26.2062 25.8125 25.9438 26.0094C25.7469 26.1844 23.8 26.25 19.2937 26.2062L12.9281 26.1406L14.4594 24.325C15.2906 23.3188 15.9688 22.4 15.9688 22.2906C15.9688 21.9625 14.2406 8.11563 14.1094 7.37188L14.0219 6.78125H19.9937C25.2656 6.78125 26.0094 6.825 26.1187 7.13125ZM12.2281 24.0187C11.55 24.7625 11.4625 24.8063 11.3313 24.3906C11.0031 23.3625 11.1125 23.1875 12.0531 23.1875H12.95L12.2281 24.0187Z" fill="#575757"/>
</svg>
